<?xml version="1.0" encoding="UTF-8" standalone="no"?>
<!DOCTYPE svg PUBLIC "-//W3C//DTD SVG 1.1//EN" "http://www.w3.org/Graphics/SVG/1.1/DTD/svg11.dtd">
<svg version="1.1" xmlns="http://www.w3.org/2000/svg" xmlns:xlink="http://www.w3.org/1999/xlink" preserveAspectRatio="xMidYMid meet" viewBox="0 0 640 640" width="640" height="640"><defs><path d="M656.62 575.63C656.32 575.16 656.1 574.78 656.04 574.69C654.45 571.87 653.96 568.63 655.7 565.85C657.44 563.07 661.79 560.96 666.15 561.4C670.52 561.84 673.93 565.32 672.12 568.08C671.72 562.51 671.39 556.65 675.88 551.8C678.35 549.27 681.58 547.6 685.08 547.05C694.13 545.46 700.14 550.58 701.34 555.74C702.23 559.55 701 563.43 699.78 567.21C703.55 562.75 712.5 560.77 719.36 562.88C726.22 564.98 730.02 570.87 727.68 575.76C724.92 581.52 715.72 584.5 707.17 586.07C700.11 587.37 689.53 587.3 681.2 586.95C670.62 586.51 660.98 582.24 656.62 575.63Z" id="d5eoBCXXn"></path><path d="M-28.41 575.63C-28.11 575.16 -27.89 574.78 -27.84 574.69C-26.24 571.87 -25.75 568.63 -27.49 565.85C-29.23 563.07 -33.58 560.96 -37.94 561.4C-42.31 561.84 -45.72 565.32 -43.91 568.08C-43.51 562.51 -43.18 556.65 -47.67 551.8C-50.14 549.27 -53.37 547.6 -56.87 547.05C-65.92 545.46 -71.93 550.58 -73.13 555.74C-74.02 559.55 -72.79 563.43 -71.57 567.21C-75.34 562.75 -84.29 560.77 -91.15 562.88C-98.01 564.98 -101.81 570.87 -99.47 575.76C-96.71 581.52 -87.51 584.5 -78.96 586.07C-71.9 587.37 -61.32 587.3 -52.99 586.95C-42.41 586.51 -32.77 582.24 -28.41 575.63Z" id="aw5C3m6wu"></path><path d="M242.54 116.41C239.37 119.07 223.51 132.38 194.98 156.33L180.79 151.19L170.24 171.58L201.25 186.34C232.45 151.34 249.78 131.89 253.25 128C260.39 129.29 267.23 124.55 268.52 117.41C269.82 110.27 265.08 103.43 257.94 102.14C250.8 100.84 243.96 105.58 242.66 112.72C242.57 113.26 242.5 113.79 242.47 114.34C242.44 115.03 242.46 115.72 242.54 116.41Z" id="a6zJVITkc"></path><path d="M132.76 164.78C123.98 161.62 119.43 151.93 122.6 143.15C125.77 134.37 135.45 129.82 144.23 132.99C148.83 134.65 185.57 147.91 190.16 149.57C193.09 150.63 194.61 153.85 193.55 156.78C193.55 156.78 193.55 156.78 193.55 156.78C188.96 169.5 186.41 176.57 185.9 177.98C184.84 180.9 181.61 182.42 178.69 181.37C178.69 181.37 137.35 166.44 132.76 164.78Z" id="b1kHZoU66K"></path><path d="M145.05 342.87L160.4 342.87L167.7 283.66L145.05 283.66L145.05 342.87Z" id="b1bGc22Qv8"></path><path d="M141.76 357.12L141.76 338.49C159.52 338.48 169.39 338.48 171.36 338.48C181.65 338.48 190 346.83 190 357.12C190 357.12 190 357.12 190 357.12C190 357.12 173.92 357.12 141.76 357.12Z" id="cGsVRqBgl"></path><path d="M107.11 323.04L119.67 331.87L159.7 287.64L141.17 274.61L107.11 323.04Z" id="aIDlo3qdD"></path><path d="M94.71 329.79L105.43 314.54C119.96 324.75 128.03 330.43 129.65 331.56C138.07 337.48 140.09 349.1 134.17 357.53C134.17 357.53 134.17 357.53 134.17 357.53C134.17 357.53 121.02 348.28 94.71 329.79Z" id="b1eocWlzcJ"></path><path d="M178.64 236.22C178.64 236.22 216.94 231.7 210.07 256.55C210.07 256.55 126.58 302.88 126.58 302.88C136.99 289.55 168.22 249.55 178.64 236.22Z" id="fdn6e3haF"></path><path d="M152.27 47.88C135.29 47.88 121.52 61.65 121.52 78.63C121.52 95.61 135.29 109.38 152.27 109.38C169.25 109.38 183.02 95.61 183.02 78.63C183.02 61.65 169.25 47.88 152.27 47.88Z" id="b1VOiRk2Lp"></path><path d="M58.49 220.14C65.38 213.87 73.18 208.69 81.63 204.77C83.88 198.48 101.87 148.16 104.12 141.87C108.9 128.42 121.52 119.34 135.79 119.09C149.66 118.49 162.4 126.68 167.61 139.55C170.36 145.94 170.67 153.11 168.49 159.71C161.8 180.56 153.01 200.67 142.25 219.75C142.33 220.37 142.72 223.47 143.41 229.05L200.26 234.1C199.94 234.62 199.76 234.91 199.73 234.96C199.45 235.41 171.63 277.8 136.04 305.94C123.87 315.56 111.29 319.55 99.41 319.55C81.4 319.55 65.02 310.38 54.2 297.79C36.7 277.41 30.58 246.14 58.49 220.14Z" id="c1tEaDtmDK"></path><path d="M58.49 65.06C61.46 52.01 63.76 38.51 70.36 26.85C76.96 15.2 89.08 5.55 102.45 6.28C115.75 7.01 126.5 17.71 132.2 29.88C134.99 28.79 138.11 28.94 140.79 30.29C144.9 32.54 146.44 38.94 143.02 42.15C150.3 38.68 158.71 38.47 166.15 41.57C175.8 45.68 182.34 54.84 183.09 65.3C183.38 69.51 181.91 73.65 179.04 76.74C173.14 82.81 164.79 80.72 157.37 79.17C150.36 77.71 141.83 77.32 137.88 83.99C136.32 86.78 135.89 90.05 136.66 93.14C138.17 99.81 143.11 104.45 147.9 108.89C147.98 109.04 148.6 110.2 148.68 110.35C131.77 113.64 113.32 102.1 108.88 85.46C104.44 68.81 114.71 49.61 131.02 44.06C131.02 44.06 131.02 44.06 131.02 44.06C127.65 44.17 124.84 41.53 124.73 38.17C124.69 37.03 124.98 35.91 125.54 34.92C121.03 32.4 115.93 31.12 110.75 31.23C102.33 31.78 95.04 37.78 90.66 44.99C86.28 52.2 84.29 60.57 82.28 68.77C80.27 76.97 78.1 85.32 73.41 92.35C61.91 109.58 38.62 114.22 21.39 102.71C18.36 100.69 15.64 98.24 13.31 95.43C25.42 101.3 39.95 98.37 48.84 88.28C54.28 81.8 56.61 73.32 58.49 65.06Z" id="a1t713PYm7"></path><path d="M247.29 133.17C247.29 111.76 264.65 94.4 286.05 94.4C307.46 94.4 324.82 111.76 324.82 133.17C324.8 154.56 307.45 171.91 286.05 171.93C264.65 171.93 247.29 154.57 247.29 133.17ZM253.75 133.17C253.75 151.01 268.21 165.47 286.05 165.47C303.9 165.47 318.36 151.01 318.36 133.17C318.36 133.17 318.36 133.17 318.36 133.17C318.34 115.33 303.89 100.88 286.05 100.86C268.21 100.86 253.75 115.32 253.75 133.17Z" id="h3yN2fkENT"></path><path d="M281.55 81.48C281.55 77.76 281.55 48.04 281.55 44.33C281.55 42.55 283 41.1 284.78 41.1C286.57 41.1 288.01 42.55 288.01 44.33C288.01 48.04 288.01 77.76 288.01 81.48C288.01 83.26 286.57 84.71 284.78 84.71C283 84.71 281.55 83.26 281.55 81.48Z" id="g17vM9g1e0"></path><path d="M197.22 135.12C195.43 135.12 193.99 133.68 193.99 131.89C193.99 130.11 195.43 128.66 197.22 128.66C200.93 128.66 230.65 128.66 234.37 128.66C236.15 128.66 237.6 130.11 237.6 131.89C237.6 133.68 236.15 135.12 234.37 135.12C234.37 135.12 200.93 135.12 197.22 135.12Z" id="c2TcBRx8L6"></path><path d="M332.9 135.12C331.11 135.12 329.67 133.68 329.67 131.89C329.67 130.11 331.11 128.66 332.9 128.66C336.61 128.66 366.33 128.66 370.05 128.66C371.83 128.66 373.28 130.11 373.28 131.89C373.28 133.68 371.83 135.12 370.05 135.12C370.05 135.12 336.61 135.12 332.9 135.12Z" id="bVy6KIUoM"></path><path d="M328.64 96.57C328.64 95.7 329 94.86 329.63 94.25C331.18 92.74 343.63 80.67 345.18 79.16C346.46 77.92 348.51 77.94 349.75 79.22C351 80.5 350.97 82.55 349.69 83.79C349.69 83.79 349.68 83.8 349.68 83.8C348.13 85.31 335.68 97.38 334.12 98.89C333.52 99.48 332.72 99.8 331.88 99.8C330.09 99.8 328.64 98.36 328.64 96.57Z" id="aXqQgkZ8q"></path><path d="M234.75 98.89C233.2 97.38 220.75 85.31 219.2 83.8C217.91 82.56 217.88 80.51 219.12 79.23C220.36 77.95 222.41 77.91 223.69 79.15C223.69 79.16 223.69 79.16 223.7 79.16C225.25 80.67 237.7 92.74 239.25 94.25C240.53 95.5 240.56 97.54 239.32 98.82C238.71 99.45 237.88 99.8 237 99.8C236.16 99.8 235.36 99.48 234.75 98.89Z" id="a24a17x2Pi"></path><path d="M221.45 184.85C221.45 184.01 221.77 183.2 222.36 182.6C223.91 181 236.36 168.18 237.92 166.58C239.16 165.3 241.21 165.27 242.49 166.52C243.76 167.76 243.79 169.8 242.55 171.08C241 172.68 228.55 185.5 226.99 187.1C226.39 187.73 225.55 188.08 224.68 188.08C222.89 188.08 221.45 186.63 221.45 184.85Z" id="a1NZKGwCmm"></path><path d="M348.35 190.34C346.47 188.41 331.44 173.01 329.56 171.09C328.32 169.81 328.34 167.77 329.61 166.52C330.89 165.27 332.93 165.29 334.18 166.57C334.18 166.57 334.18 166.57 334.19 166.58C336.07 168.5 351.1 183.9 352.97 185.83C354.22 187.1 354.2 189.15 352.92 190.39C352.32 190.98 351.51 191.31 350.66 191.31C349.79 191.31 348.96 190.96 348.35 190.34Z" id="b7TLeubXzD"></path><path d="M281.55 220.39C281.55 216.67 281.55 186.95 281.55 183.24C281.55 181.45 283 180.01 284.78 180.01C286.57 180.01 288.01 181.45 288.01 183.24C288.01 183.24 288.01 183.24 288.01 183.24C288.01 186.95 288.01 216.67 288.01 220.39C288.01 222.17 286.57 223.62 284.78 223.62C283 223.62 281.55 222.17 281.55 220.39Z" id="aqQmXQSO9"></path><path d="M243.19 159.19C239.19 160.25 219.18 165.55 183.17 175.1L172.52 164.42L154.3 178.4L176.1 204.94C219.22 186.51 243.17 176.27 247.96 174.23C253.88 178.43 262.08 177.05 266.29 171.14C270.5 165.22 269.11 157.02 263.2 152.81C257.29 148.6 249.08 149.99 244.87 155.9C244.56 156.34 244.27 156.8 244.01 157.28C243.69 157.89 243.42 158.53 243.19 159.19Z" id="a1PpRn9azv"></path><path d="M123.26 156.31C116.65 149.71 116.65 139.01 123.25 132.41C129.85 125.8 140.55 125.8 147.15 132.4C147.15 132.4 147.16 132.4 147.16 132.41C147.16 132.41 147.16 132.41 147.16 132.41C167.88 153.12 179.39 164.63 181.69 166.94C183.89 169.14 183.89 172.7 181.69 174.9C181.69 174.9 181.69 174.9 181.69 174.9C172.13 184.47 166.82 189.78 165.75 190.84C163.55 193.04 159.99 193.04 157.79 190.84C157.79 190.84 126.71 159.76 123.26 156.31Z" id="e1Q9pvXGBu"></path><path d="M166 637.72C88.83 637.72 26.05 573.88 26.05 495.41C26.05 416.95 88.83 353.11 166 353.11C168.54 353.11 188.9 353.11 191.45 353.11C205.45 324.56 227.02 300.41 253.81 283.3C280.99 265.92 312.58 256.67 344.85 256.67C434.34 256.67 508.94 327.04 515.88 417.41C516.66 417.41 522.92 417.41 523.7 417.41C583.49 417.41 632.14 466.82 632.14 527.56C632.14 588.3 583.49 637.72 523.7 637.72C452.16 637.72 201.77 637.72 166 637.72ZM166 359.1C92.14 359.1 32.04 420.25 32.04 495.41C32.04 570.58 92.14 631.72 166 631.72C201.77 631.72 487.93 631.72 523.7 631.72C580.19 631.72 626.14 585 626.14 527.56C626.14 470.13 580.19 423.4 523.7 423.4C522.8 423.4 518.32 423.4 510.27 423.4C510.16 421.71 510.11 420.77 510.09 420.58C504.69 332.03 432.11 262.66 344.85 262.66C282.01 262.66 223.6 299.85 196.03 357.4C195.97 357.51 195.7 358.08 195.21 359.1C179.63 359.1 169.89 359.1 166 359.1Z" id="a5NSPQte9I"></path></defs><g><g><g><use xlink:href="#d5eoBCXXn" opacity="1" fill="#f2f2f2" fill-opacity="1"></use><g><use xlink:href="#d5eoBCXXn" opacity="1" fill-opacity="0" stroke="#000000" stroke-width="1" stroke-opacity="0"></use></g></g><g><use xlink:href="#aw5C3m6wu" opacity="1" fill="#f2f2f2" fill-opacity="1"></use><g><use xlink:href="#aw5C3m6wu" opacity="1" fill-opacity="0" stroke="#000000" stroke-width="1" stroke-opacity="0"></use></g></g><g><use xlink:href="#a6zJVITkc" opacity="1" fill="#a0616a" fill-opacity="1"></use><g><use xlink:href="#a6zJVITkc" opacity="1" fill-opacity="0" stroke="#000000" stroke-width="1" stroke-opacity="0"></use></g></g><g><use xlink:href="#b1kHZoU66K" opacity="1" fill="#cccccc" fill-opacity="1"></use><g><use xlink:href="#b1kHZoU66K" opacity="1" fill-opacity="0" stroke="#000000" stroke-width="1" stroke-opacity="0"></use></g></g><g><use xlink:href="#b1bGc22Qv8" opacity="1" fill="#a0616a" fill-opacity="1"></use><g><use xlink:href="#b1bGc22Qv8" opacity="1" fill-opacity="0" stroke="#000000" stroke-width="1" stroke-opacity="0"></use></g></g><g><use xlink:href="#cGsVRqBgl" opacity="1" fill="#2f2e41" fill-opacity="1"></use><g><use xlink:href="#cGsVRqBgl" opacity="1" fill-opacity="0" stroke="#000000" stroke-width="1" stroke-opacity="0"></use></g></g><g><use xlink:href="#aIDlo3qdD" opacity="1" fill="#a0616a" fill-opacity="1"></use><g><use xlink:href="#aIDlo3qdD" opacity="1" fill-opacity="0" stroke="#000000" stroke-width="1" stroke-opacity="0"></use></g></g><g><use xlink:href="#b1eocWlzcJ" opacity="1" fill="#2f2e41" fill-opacity="1"></use><g><use xlink:href="#b1eocWlzcJ" opacity="1" fill-opacity="0" stroke="#000000" stroke-width="1" stroke-opacity="0"></use></g></g><g><use xlink:href="#fdn6e3haF" opacity="1" fill="#a0616a" fill-opacity="1"></use><g><use xlink:href="#fdn6e3haF" opacity="1" fill-opacity="0" stroke="#000000" stroke-width="1" stroke-opacity="0"></use></g></g><g><use xlink:href="#b1VOiRk2Lp" opacity="1" fill="#a0616a" fill-opacity="1"></use><g><use xlink:href="#b1VOiRk2Lp" opacity="1" fill-opacity="0" stroke="#000000" stroke-width="1" stroke-opacity="0"></use></g></g><g><use xlink:href="#c1tEaDtmDK" opacity="1" fill="#cccccc" fill-opacity="1"></use><g><use xlink:href="#c1tEaDtmDK" opacity="1" fill-opacity="0" stroke="#000000" stroke-width="1" stroke-opacity="0"></use></g></g><g><use xlink:href="#a1t713PYm7" opacity="1" fill="#2f2e41" fill-opacity="1"></use><g><use xlink:href="#a1t713PYm7" opacity="1" fill-opacity="0" stroke="#000000" stroke-width="1" stroke-opacity="0"></use></g></g><g><use xlink:href="#h3yN2fkENT" opacity="1" fill="#bf0033" fill-opacity="1"></use><g><use xlink:href="#h3yN2fkENT" opacity="1" fill-opacity="0" stroke="#000000" stroke-width="1" stroke-opacity="0"></use></g></g><g><use xlink:href="#g17vM9g1e0" opacity="1" fill="#bf0033" fill-opacity="1"></use><g><use xlink:href="#g17vM9g1e0" opacity="1" fill-opacity="0" stroke="#000000" stroke-width="1" stroke-opacity="0"></use></g></g><g><use xlink:href="#c2TcBRx8L6" opacity="1" fill="#bf0033" fill-opacity="1"></use><g><use xlink:href="#c2TcBRx8L6" opacity="1" fill-opacity="0" stroke="#000000" stroke-width="1" stroke-opacity="0"></use></g></g><g><use xlink:href="#bVy6KIUoM" opacity="1" fill="#bf0033" fill-opacity="1"></use><g><use xlink:href="#bVy6KIUoM" opacity="1" fill-opacity="0" stroke="#000000" stroke-width="1" stroke-opacity="0"></use></g></g><g><use xlink:href="#aXqQgkZ8q" opacity="1" fill="#bf0033" fill-opacity="1"></use><g><use xlink:href="#aXqQgkZ8q" opacity="1" fill-opacity="0" stroke="#000000" stroke-width="1" stroke-opacity="0"></use></g></g><g><use xlink:href="#a24a17x2Pi" opacity="1" fill="#bf0033" fill-opacity="1"></use><g><use xlink:href="#a24a17x2Pi" opacity="1" fill-opacity="0" stroke="#000000" stroke-width="1" stroke-opacity="0"></use></g></g><g><use xlink:href="#a1NZKGwCmm" opacity="1" fill="#bf0033" fill-opacity="1"></use><g><use xlink:href="#a1NZKGwCmm" opacity="1" fill-opacity="0" stroke="#000000" stroke-width="1" stroke-opacity="0"></use></g></g><g><use xlink:href="#b7TLeubXzD" opacity="1" fill="#bf0033" fill-opacity="1"></use><g><use xlink:href="#b7TLeubXzD" opacity="1" fill-opacity="0" stroke="#000000" stroke-width="1" stroke-opacity="0"></use></g></g><g><use xlink:href="#aqQmXQSO9" opacity="1" fill="#bf0033" fill-opacity="1"></use><g><use xlink:href="#aqQmXQSO9" opacity="1" fill-opacity="0" stroke="#000000" stroke-width="1" stroke-opacity="0"></use></g></g><g><use xlink:href="#a1PpRn9azv" opacity="1" fill="#a0616a" fill-opacity="1"></use><g><use xlink:href="#a1PpRn9azv" opacity="1" fill-opacity="0" stroke="#000000" stroke-width="1" stroke-opacity="0"></use></g></g><g><use xlink:href="#e1Q9pvXGBu" opacity="1" fill="#cccccc" fill-opacity="1"></use><g><use xlink:href="#e1Q9pvXGBu" opacity="1" fill-opacity="0" stroke="#000000" stroke-width="1" stroke-opacity="0"></use></g></g><g><use xlink:href="#a5NSPQte9I" opacity="1" fill="#3f3d56" fill-opacity="1"></use><g><use xlink:href="#a5NSPQte9I" opacity="1" fill-opacity="0" stroke="#000000" stroke-width="1" stroke-opacity="0"></use></g></g></g></g></svg>